<svg width="100" height="100" viewBox="0 0 400 438" fill="none" xmlns="http://www.w3.org/2000/svg">
<path d="M400 238C400 348.457 310.457 438 200 438C89.5431 438 0 348.457 0 238C0 127.543 89.5431 38 200 38C310.457 38 400 127.543 400 238Z" fill="#0B2A34"/>
<path d="M169.799 99.6877C169.799 96.8574 171.085 94.1429 173.373 92.1415C175.662 90.1402 178.766 89.0158 182.003 89.0158C185.239 89.0158 188.343 90.1402 190.632 92.1415C192.921 94.1429 194.207 96.8574 194.207 99.6877V147.391L208.973 148.779L269.26 172.15C275.728 174.711 279.634 180.368 279.634 186.557V233.087C279.267 241.838 271.335 248.775 261.328 249.095H182.003C177.365 249.095 172.972 247.494 169.799 244.506L110 199.684L119.031 191.466C121.35 189.225 124.645 188.051 128.062 188.051H130.747L169.799 206.407V99.6877ZM182.003 57C194.949 57 207.366 61.4974 216.52 69.503C225.675 77.5085 230.818 88.3663 230.818 99.6877C230.818 115.696 221.055 129.249 206.41 136.613V123.593C213.855 117.723 218.614 109.186 218.614 99.6877C218.614 91.1966 214.757 83.0533 207.891 77.0492C201.025 71.045 191.713 67.6719 182.003 67.6719C172.293 67.6719 162.98 71.045 156.114 77.0492C149.248 83.0533 145.391 91.1966 145.391 99.6877C145.391 109.186 150.151 117.723 157.595 123.593V136.613C142.95 129.249 133.187 115.696 133.187 99.6877C133.187 88.3663 138.33 77.5085 147.485 69.503C156.64 61.4974 169.056 57 182.003 57Z" fill="#18FF90"/>
<path d="M188.3 263H259.7C263.758 263 267.649 263.593 270.519 264.648C273.388 265.702 275 267.133 275 268.625V287.375C275 288.867 273.388 290.298 270.519 291.352C267.649 292.407 263.758 293 259.7 293H188.3C184.242 293 180.351 292.407 177.481 291.352C174.612 290.298 173 288.867 173 287.375V268.625C173 267.133 174.612 265.702 177.481 264.648C180.351 263.593 184.242 263 188.3 263Z" fill="#2EF742"/>
<path d="M141.895 298.649C140.979 297.814 139.971 297.283 138.929 297.086C137.887 296.889 136.831 297.031 135.823 297.503C134.814 297.974 133.872 298.767 133.051 299.836C132.23 300.904 131.545 302.227 131.036 303.729L116.212 347.415L107.728 333.522C106.992 332.273 106.111 331.277 105.136 330.592C104.162 329.906 103.114 329.546 102.054 329.531C100.994 329.515 99.9426 329.846 98.9613 330.504C97.9799 331.161 97.0884 332.132 96.3387 333.36C95.589 334.588 94.9961 336.047 94.5946 337.654C94.1931 339.261 93.9911 340.983 94.0003 342.719C94.0095 344.456 94.2298 346.171 94.6483 347.767C95.0667 349.362 95.675 350.805 96.4377 352.011L112.407 378.162C113.917 380.64 115.953 382 118.053 382L119.159 381.869C120.382 381.589 121.55 380.847 122.569 379.702C123.588 378.558 124.431 377.041 125.031 375.273L144.994 316.432C145.503 314.931 145.827 313.281 145.947 311.575C146.068 309.869 145.981 308.141 145.694 306.49C145.406 304.838 144.922 303.296 144.271 301.951C143.619 300.605 142.812 299.483 141.895 298.649Z" fill="#23BC45"/>
<g clip-path="url(#clip0_1_3)">
<path d="M176.5 341.005C171.29 341.005 166.294 342.815 162.61 346.039C158.927 349.262 156.857 353.634 156.857 358.192C156.857 362.751 158.927 367.122 162.61 370.346C166.294 373.569 171.29 375.38 176.5 375.38C181.71 375.38 186.706 373.569 190.39 370.346C194.073 367.122 196.143 362.751 196.143 358.192C196.143 353.634 194.073 349.262 190.39 346.039C186.706 342.815 181.71 341.005 176.5 341.005ZM204 358.192C204 364.574 201.103 370.694 195.945 375.207C190.788 379.719 183.793 382.255 176.5 382.255C169.207 382.255 162.212 379.719 157.055 375.207C151.897 370.694 149 364.574 149 358.192C149 351.81 151.897 345.69 157.055 341.177C162.212 336.665 169.207 334.13 176.5 334.13C183.793 334.13 190.788 336.665 195.945 341.177C201.103 345.69 204 351.81 204 358.192Z" fill="#2DDA87"/>
</g>
<path d="M211.583 330.438C209.048 330.438 207 331.974 207 333.875C207 335.776 209.048 337.312 211.583 337.312H229.917V375.125C229.917 377.026 231.965 378.562 234.5 378.562C237.035 378.562 239.083 377.026 239.083 375.125V337.312H257.417C259.952 337.312 262 335.776 262 333.875C262 331.974 259.952 330.438 257.417 330.438H234.5H211.583Z" fill="#2DDA87"/>
<path d="M292.781 327C278.543 327 267 338.543 267 352.781C267 367.019 278.543 378.562 292.781 378.562C307.019 378.562 318.562 367.019 318.562 352.781C318.562 338.543 307.019 327 292.781 327ZM302.229 365.249H283.333V340.313H301.62V344.73H288.426V350.024H300.538V354.354H288.426V360.766H302.23L302.229 365.249Z" fill="#2DDA87"/>
<defs>
<clipPath id="clip0_1_3">
<rect width="55" height="55" fill="white" transform="translate(149 327)"/>
</clipPath>
</defs>
</svg>
